<?xml version="1.0" standalone="no"?>
<!DOCTYPE svg PUBLIC "-//W3C//DTD SVG 20010904//EN"
 "http://www.w3.org/TR/2001/REC-SVG-20010904/DTD/svg10.dtd">
<svg version="1.0" xmlns="http://www.w3.org/2000/svg"
 width="700.000000pt" height="700.000000pt" viewBox="0 0 700.000000 700.000000"
 preserveAspectRatio="xMidYMid meet">
<metadata>
Created by potrace 1.11, written by Peter Selinger 2001-2013
</metadata>
<g transform="translate(0.000000,700.000000) scale(0.100000,-0.100000)"
fill="#000000" stroke="none">
<path d="M2968 6340 c-17 -4 -48 -48 -120 -170 -54 -91 -104 -176 -111 -190
-13 -24 -164 -286 -335 -580 -46 -80 -96 -165 -110 -190 -13 -25 -62 -108
-107 -185 -45 -77 -118 -203 -162 -280 -45 -77 -90 -156 -101 -175 -11 -19
-44 -75 -73 -125 -94 -163 -150 -260 -171 -295 -11 -19 -31 -53 -43 -75 -26
-46 -244 -422 -348 -600 -144 -247 -141 -242 -123 -270 9 -14 20 -26 24 -26 4
-1 277 -2 607 -3 l600 -2 -2 -20 c-1 -12 -137 -562 -303 -1223 -165 -660 -300
-1209 -300 -1220 0 -31 51 -59 77 -43 9 6 93 85 388 367 245 235 436 417 650
620 86 83 183 175 214 205 105 100 413 394 450 429 20 19 119 113 220 210 101
97 198 190 216 206 17 17 110 105 206 196 96 92 199 190 229 219 30 28 100 95
155 148 56 54 181 174 280 267 98 94 231 220 294 281 64 62 132 126 151 144
19 18 111 105 203 194 93 88 204 195 248 236 81 77 92 99 65 135 -14 19 -36
20 -775 20 -419 0 -761 2 -761 4 0 6 37 54 213 276 87 110 171 215 185 234 15
19 45 57 68 85 22 28 126 159 230 291 105 132 294 371 421 532 127 160 232
300 233 310 4 38 -1 52 -22 59 -26 9 -2624 12 -2660 4z m1778 -468 c-4 -6
-277 -353 -309 -392 -7 -8 -54 -69 -106 -135 -52 -66 -97 -122 -100 -125 -4
-3 -26 -32 -51 -65 -25 -33 -47 -62 -50 -65 -3 -3 -21 -25 -40 -50 -19 -25
-39 -50 -45 -56 -5 -6 -21 -26 -35 -44 -14 -19 -36 -47 -50 -64 -35 -43 -31
-38 -215 -271 -437 -553 -416 -525 -392 -526 12 0 336 0 720 0 l698 0 -54 -52
c-30 -29 -99 -94 -153 -146 -54 -52 -182 -173 -283 -270 -102 -97 -199 -189
-216 -206 -18 -16 -112 -107 -211 -202 -98 -94 -204 -195 -234 -223 -30 -29
-129 -123 -220 -210 -91 -87 -185 -177 -210 -200 -25 -23 -124 -117 -220 -210
-96 -92 -220 -210 -275 -263 -55 -53 -101 -94 -103 -93 -1 2 89 371 201 820
l205 816 -137 0 c-75 1 -315 1 -535 0 -371 0 -398 1 -392 17 6 14 251 439 764
1323 30 52 63 109 72 125 93 162 201 348 223 382 15 24 27 45 27 48 0 3 20 38
43 78 24 39 59 99 77 132 19 33 44 76 56 96 l23 37 765 0 c422 0 764 -3 762
-6z"/>
</g>
</svg>
