<svg id="Layer_1" enable-background="new 0 0 512 512" height="512" viewBox="0 0 512 512" width="512" xmlns="http://www.w3.org/2000/svg"><path d="m256 10c-135.862 0-246 110.138-246 246s110.138 246 246 246 246-110.138 246-246-110.138-246-246-246z" fill="#ffcd69"/><circle cx="256" cy="256" fill="#fff2a0" r="166"/><path d="m437.019 74.981c-48.352-48.353-112.639-74.981-181.019-74.981s-132.667 26.628-181.02 74.981c-48.352 48.352-74.98 112.639-74.98 181.019s26.628 132.667 74.98 181.02 112.64 74.98 181.02 74.98 132.667-26.628 181.019-74.98c48.353-48.353 74.981-112.64 74.981-181.02s-26.628-132.667-74.981-181.019zm-181.019 417.019c-130.131 0-236-105.869-236-236s105.869-236 236-236 236 105.869 236 236-105.869 236-236 236z"/><path d="m303.27 65.78c.05.02 8.452 2.254 12.516 3.554 64.332 20.574 113.707 72.929 130.374 139.306 1.12 4.46 5.11 7.57 9.69 7.57.82 0 1.64-.1 2.44-.3 2.6-.65 4.78-2.27 6.15-4.56 1.37-2.3 1.77-4.98 1.12-7.58-9.37-37.39-28.63-71.72-55.67-99.28-13.66-13.91-29.11-25.88-45.92-35.6-13.481-7.781-27.8-14.079-42.71-18.794-4.29-1.357-13.12-3.706-13.17-3.726-.8-.19-1.61-.29-2.42-.29-4.6 0-8.59 3.12-9.7 7.59-1.33 5.35 1.95 10.78 7.3 12.11z"/><path d="m458.35 295.89c-.8-.19-1.61-.29-2.42-.29-4.6 0-8.59 3.12-9.7 7.59-.01.04-.928 3.654-1.4 5.351-18.851 67.827-72.592 120.302-141.401 137.599-2.59.65-4.77 2.28-6.14 4.57s-1.77 4.98-1.12 7.57c1.12 4.45 5.11 7.56 9.69 7.56.82 0 1.64-.1 2.45-.3 37.37-9.39 71.68-28.64 99.22-55.69 13.91-13.65 25.88-29.09 35.59-45.9 9.129-15.822 16.22-32.8 21.107-50.54.472-1.713 1.413-5.36 1.413-5.4.65-2.6.24-5.28-1.14-7.57-1.369-2.29-3.559-3.9-6.149-4.55z"/><path d="m256.19 452.02h-.01c-5.52.01-10 4.5-9.99 10.01 0 5.51 4.49 9.99 10 9.99h.01c5.51 0 9.99-4.49 9.99-10.01-.01-5.51-4.49-9.99-10-9.99z"/><path d="m208.88 446.25s-3.716-.946-5.409-1.416c-67.921-18.87-120.421-72.703-137.671-141.624-1.12-4.46-5.1-7.58-9.69-7.58-.82 0-1.64.1-2.44.3-2.59.65-4.77 2.27-6.15 4.56-1.37 2.29-1.77 4.98-1.12 7.57 9.35 37.43 28.6 71.79 55.65 99.38 13.66 13.93 29.12 25.92 45.95 35.64 17.36 10.04 36.12 17.61 55.75 22.5.05.02 1.344.38 2.74.38 4.6 0 8.59-3.12 9.7-7.6 1.32-5.35-1.95-10.78-7.31-12.11z"/><path d="m53.68 215.95c.8.19 1.61.29 2.43.29 4.59 0 8.58-3.11 9.69-7.58.01-.02 1.042-4.049 1.598-6.014 19.073-67.493 72.71-119.637 141.322-136.826 5.34-1.34 8.61-6.79 7.27-12.13-1.12-4.46-5.11-7.57-9.7-7.57-.81 0-1.63.1-2.43.3-37.41 9.36-71.76 28.61-99.34 55.66-13.91 13.66-25.9 29.11-35.61 45.94-8.449 14.624-15.152 30.234-19.978 46.513-.903 3.046-2.542 9.297-2.542 9.297-.64 2.59-.24 5.28 1.14 7.57s3.56 3.9 6.15 4.55z"/><path d="m256 80c-97.047 0-176 78.953-176 176s78.953 176 176 176 176-78.953 176-176-78.953-176-176-176zm0 332c-86.019 0-156-69.981-156-156s69.981-156 156-156 156 69.981 156 156-69.981 156-156 156z"/><path d="m294.22 248.255c4.279-6.367 6.78-14.024 6.78-22.255 0-18.604-12.767-34.282-30-38.734v-11.266c0-5.523-4.477-10-10-10s-10 4.477-10 10v10h-20v-10c0-5.523-4.477-10-10-10s-10 4.477-10 10v10h-10c-5.523 0-10 4.477-10 10s4.477 10 10 10h10v100h-10c-5.523 0-10 4.477-10 10s4.477 10 10 10h10v10c0 5.523 4.477 10 10 10s10-4.477 10-10v-10h20v10c0 5.523 4.477 10 10 10s10-4.477 10-10v-10h10c22.056 0 40-17.944 40-40 0-17.424-11.203-32.273-26.78-37.745zm-13.22-22.255c0 11.028-8.972 20-20 20h-30v-40h30c11.028 0 20 8.972 20 20zm0 80h-50v-40h50c11.028 0 20 8.972 20 20s-8.972 20-20 20z"/><circle cx="255.97" cy="49.98" r="10"/><circle cx="49.98" cy="255.94" r="10"/><circle cx="462.02" cy="255.89" r="10"/></svg>