<svg height="512" viewBox="0 0 60 60" width="512" xmlns="http://www.w3.org/2000/svg"><g id="058---Stocks" fill="none"><g id="Icons" transform="translate(1 1)"><path id="Shape" d="m57 0h-2c-.5522847 0-1 .44771525-1 1v3c0-.55228475-.4477153-1-1-1h-2c-.5522847 0-1 .44771525-1 1v5c0-.55228475-.4477153-1-1-1h-2c-.5522847 0-1 .44771525-1 1v-4c0-.55228475-.4477153-1-1-1h-2c-.5522847 0-1 .44771525-1 1v7c0-.5522847-.4477153-1-1-1h-2c-.5522847 0-1 .4477153-1 1v7c0-.5522847-.4477153-1-1-1h-2c-.5522847 0-1 .4477153-1 1v-2c0-.5522847-.4477153-1-1-1h-2c-.5522847 0-1 .4477153-1 1v7c0-.5522847-.4477153-1-1-1h-2c-.5522847 0-1 .4477153-1 1v5h32v-28c0-.55228475-.4477153-1-1-1z" fill="#549414"/><path id="Shape" d="m28 29h-28v28c0 .5522847.44771525 1 1 1h2c.55228475 0 1-.4477153 1-1v-8c0 .5522847.44771525 1 1 1h2c.55228475 0 1-.4477153 1-1v3c0 .5522847.44771525 1 1 1h2c.5522847 0 1-.4477153 1-1v-5c0 .5522847.4477153 1 1 1h2c.5522847 0 1-.4477153 1-1v-6c0 .5522847.4477153 1 1 1h2c.5522847 0 1-.4477153 1-1v-4c0 .5522847.4477153 1 1 1h2c.5522847 0 1-.4477153 1-1v2c0 .5522847.4477153 1 1 1h2c.5522847 0 1-.4477153 1-1v-5c0 .5522847.4477153 1 1 1h2c.5522847 0 1-.4477153 1-1v-5z" fill="#f44335"/><rect id="Rectangle-path" fill="#549414" height="14" rx="2" width="24"/><g fill="#60a917"><rect id="Rectangle-path" height="14" rx="2" width="21"/><path id="Shape" d="m55 0h2c.5522847 0 1 .44771525 1 1v28h-4v-28c0-.55228475.4477153-1 1-1z"/><path id="Shape" d="m47 8h2c.5522847 0 1 .44771525 1 1v20h-4v-20c0-.55228475.4477153-1 1-1z"/><path id="Shape" d="m39 11h2c.5522847 0 1 .4477153 1 1v17h-4v-17c0-.5522847.4477153-1 1-1z"/><path id="Shape" d="m31 16h2c.5522847 0 1 .4477153 1 1v12h-4v-12c0-.5522847.4477153-1 1-1z"/></g><path id="Shape" d="m1 29h2c.55228475 0 1 .4477153 1 1v28h-4v-28c0-.5522847.44771525-1 1-1z" fill="#c81e1e" transform="matrix(-1 0 0 -1 4 87)"/><path id="Shape" d="m9 29h2c.5522847 0 1 .4477153 1 1v23h-4v-23c0-.5522847.44771525-1 1-1z" fill="#c81e1e" transform="matrix(-1 0 0 -1 20 82)"/><path id="Shape" d="m17 29h2c.5522847 0 1 .4477153 1 1v12h-4v-12c0-.5522847.4477153-1 1-1z" fill="#c81e1e" transform="matrix(-1 0 0 -1 36 71)"/><path id="Shape" d="m25 29h2c.5522847 0 1 .4477153 1 1v10h-4v-10c0-.5522847.4477153-1 1-1z" fill="#c81e1e" transform="matrix(-1 0 0 -1 52 69)"/><rect id="Rectangle-path" fill="#c81e1e" height="14" rx="2" width="24" x="34" y="44"/><rect id="Rectangle-path" fill="#f44335" height="14" rx="2" width="21" x="34" y="44"/></g><g id="Layer_4" fill="#000"><path id="Shape" d="m58 0h-2c-1.1045695 0-2 .8954305-2 2v1h-2c-1.1045695 0-2 .8954305-2 2v3h-2v-2c0-1.1045695-.8954305-2-2-2h-2c-1.1045695 0-2 .8954305-2 2v5h-2c-1.1045695 0-2 .8954305-2 2v5h-2c0-1.1045695-.8954305-2-2-2h-2c-1.1045695 0-2 .8954305-2 2v5h-2c-1.1045695 0-2 .8954305-2 2v4h-25c-.55228475 0-1 .4477153-1 1v28c0 1.1045695.8954305 2 2 2h2c1.1045695 0 2-.8954305 2-2v-6h2v1c0 1.1045695.8954305 2 2 2h2c1.1045695 0 2-.8954305 2-2v-3h2c1.1045695 0 2-.8954305 2-2v-4h2c1.1045695 0 2-.8954305 2-2v-2h2c0 1.1045695.8954305 2 2 2h2c1.1045695 0 2-.8954305 2-2v-3h2c1.1045695 0 2-.8954305 2-2v-4h25c.5522847 0 1-.4477153 1-1v-28c0-1.1045695-.8954305-2-2-2zm-24 18v11h-2v-11zm-6 7h2v4h-2zm-26 33v-27h2v27zm4-8v-19h2v19zm4 3v-22h2v22zm4-5v-17h2v17zm4-6v-11h2v11zm4-4v-7h2v7zm4 2v-9h2v9zm6-5h-2v-4h2zm4-15h2v9h-2zm4-7h2v16h-2zm4-7h2v23h-2zm4 4h2v19h-2zm4-5h2v24h-2zm4 24v-27h2v27z"/><path id="Shape" d="m5 9h2v2c0 .5522847.44771525 1 1 1s1-.4477153 1-1v-2h2c.5522847 0 1-.44771525 1-1s-.4477153-1-1-1h-2v-2c0-.55228475-.44771525-1-1-1s-1 .44771525-1 1v2h-2c-.55228475 0-1 .44771525-1 1s.44771525 1 1 1z"/><path id="Shape" d="m15 9h2v2c0 .5522847.4477153 1 1 1s1-.4477153 1-1v-2h2c.5522847 0 1-.44771525 1-1s-.4477153-1-1-1h-2v-2c0-.55228475-.4477153-1-1-1s-1 .44771525-1 1v2h-2c-.5522847 0-1 .44771525-1 1s.4477153 1 1 1z"/><path id="Shape" d="m0 13c0 1.6568542 1.34314575 3 3 3h20c1.6568542 0 3-1.3431458 3-3v-10c0-1.65685425-1.3431458-3-3-3h-20c-1.65685425 0-3 1.34314575-3 3zm2-10c0-.55228475.44771525-1 1-1h20c.5522847 0 1 .44771525 1 1v10c0 .5522847-.4477153 1-1 1h-20c-.55228475 0-1-.4477153-1-1z"/><path id="Shape" d="m45 51h-6c-.5522847 0-1 .4477153-1 1s.4477153 1 1 1h6c.5522847 0 1-.4477153 1-1s-.4477153-1-1-1z"/><path id="Shape" d="m55 51h-6c-.5522847 0-1 .4477153-1 1s.4477153 1 1 1h6c.5522847 0 1-.4477153 1-1s-.4477153-1-1-1z"/><path id="Shape" d="m57 44h-20c-1.6568542 0-3 1.3431458-3 3v10c0 1.6568542 1.3431458 3 3 3h20c1.6568542 0 3-1.3431458 3-3v-10c0-1.6568542-1.3431458-3-3-3zm1 13c0 .5522847-.4477153 1-1 1h-20c-.5522847 0-1-.4477153-1-1v-10c0-.5522847.4477153-1 1-1h20c.5522847 0 1 .4477153 1 1z"/></g></g></svg>